<?xml version="1.0" encoding="utf-8"?>
<!-- Generator: Adobe Illustrator 25.4.1, SVG Export Plug-In . SVG Version: 6.00 Build 0)  -->
<svg version="1.1" id="Layer_1" xmlns="http://www.w3.org/2000/svg" xmlns:xlink="http://www.w3.org/1999/xlink" x="0px" y="0px"
	 viewBox="0 0 394.31 116.88" style="enable-background:new 0 0 394.31 116.88;" xml:space="preserve">
<g>
	<path d="M22.56,10.08v33.96H11.52V10.08H0V0.84h34.08v9.24H22.56z"/>
	<path d="M68.22,44.04V26.7H52.26v17.34H41.28V0.84h10.98v16.68h15.96V0.84h11.04v43.2H68.22z"/>
	<path d="M110.34,0c13.32,0,22.86,10.02,22.86,22.44c0,12.54-9.48,22.44-22.86,22.44c-13.32,0-22.86-9.9-22.86-22.44
		C87.48,10.08,97.02,0,110.34,0z M110.34,34.86c7.02,0,11.76-5.7,11.76-12.42c0-6.66-4.74-12.42-11.76-12.42
		s-11.82,5.76-11.82,12.42C98.52,29.16,103.32,34.86,110.34,34.86z"/>
	<path d="M178.62,28.02c0,10.14-6.9,16.86-18.78,16.86c-11.82,0-18.78-6.72-18.78-16.86V0.84h10.98v25.98c0,5.1,2.7,8.04,7.8,8.04
		s7.74-2.94,7.74-8.04V0.84h11.04V28.02z"/>
	<path d="M187.44,42.54V31.98c3.06,1.62,6.72,2.82,10.2,3.12c1.2,0.12,2.34,0.12,3.42,0.06c3.54-0.24,5.52-1.2,5.52-3
		c0-2.28-2.7-3.42-7.98-5.4C191.34,24,186.66,21,186.66,13.08S193.2,0,203.04,0c4.32,0,8.64,0.84,11.52,2.04v10.14
		c-2.58-1.62-6.66-2.7-10.62-2.7s-6.48,1.38-6.48,3.54c0,2.04,2.52,3.42,7.56,5.46c7.26,2.88,12.24,5.94,12.24,13.62
		c0,7.98-6,12.78-16.74,12.78C195.6,44.88,190.68,43.92,187.44,42.54z"/>
	<path d="M242.1,0.24h0.54l21.48,43.8h-11.46l-3.06-6.6h-14.52l-3,6.6h-11.46L242.1,0.24z M246.48,30.06
		c-1.5-3.42-3.24-7.68-4.08-10.32c-0.6,1.44-2.94,7.56-4.14,10.32H246.48z"/>
	<path d="M306.59,44.64l-22.14-19.5l-3.48-2.88v21.78h-10.74V0.24h0.48l21.96,19.44c1.2,0.96,2.34,2.04,3.54,2.94V0.84h10.8v43.8
		H306.59z"/>
	<path d="M317.76,44.04V0.84h14.46c15.12,0,24.48,9.12,24.48,21.6c0,12.54-9.36,21.6-24.42,21.6H317.76z M328.73,10.08V34.8h3.42
		c8.76,0,13.44-5.64,13.44-12.36c0-6.72-4.68-12.36-13.5-12.36H328.73z"/>
	<path d="M36.54,84.9c-2.46-1.26-6.3-2.88-11.46-2.88c-8.16,0-12.9,5.76-12.9,12.42c0,6.72,4.62,12.42,12.42,12.42
		c5.52,0,9.66-1.56,12.24-2.88v10.14c-2.64,1.38-7.56,2.76-13.2,2.76c-12.96,0-22.5-9.84-22.5-22.44C1.14,81.96,10.68,72,24.12,72
		c5.76,0,9.78,1.5,12.42,2.88V84.9z"/>
	<path d="M65.64,72C78.96,72,88.5,82.02,88.5,94.44c0,12.54-9.48,22.44-22.86,22.44c-13.32,0-22.86-9.9-22.86-22.44
		C42.78,82.08,52.32,72,65.64,72z M65.64,106.86c7.02,0,11.76-5.7,11.76-12.42c0-6.66-4.74-12.42-11.76-12.42
		s-11.82,5.76-11.82,12.42C53.82,101.16,58.62,106.86,65.64,106.86z"/>
	<path d="M110.1,96.42l-2.82-2.34v21.96H96.84v-43.8h0.24l21.06,19.14l21.06-19.14h0.3v43.8h-10.56V94.08l-2.76,2.34
		c-2.7,2.58-5.34,5.16-8.04,7.68C115.44,101.58,112.8,99,110.1,96.42z"/>
	<path d="M163.5,96.42l-2.82-2.34v21.96h-10.44v-43.8h0.24l21.06,19.14l21.06-19.14h0.3v43.8h-10.56V94.08l-2.76,2.34
		c-2.7,2.58-5.34,5.16-8.04,7.68C168.84,101.58,166.2,99,163.5,96.42z"/>
	<path d="M240.71,100.02c0,10.14-6.9,16.86-18.78,16.86c-11.82,0-18.78-6.72-18.78-16.86V72.84h10.98v25.98c0,5.1,2.7,8.04,7.8,8.04
		s7.74-2.94,7.74-8.04V72.84h11.04V100.02z"/>
	<path d="M287.39,116.64l-22.14-19.5l-3.48-2.88v21.78h-10.74v-43.8h0.48l21.96,19.44c1.2,0.96,2.34,2.04,3.54,2.94V72.84h10.8v43.8
		H287.39z"/>
	<path d="M298.56,116.04v-43.2h10.98v43.2H298.56z"/>
	<path d="M339.23,82.08v33.96h-11.04V82.08h-11.52v-9.24h34.08v9.24H339.23z"/>
	<path d="M364.25,72.84l8.76,16.2l8.82-16.2h12.48l-15.78,26.7v16.5h-10.98v-16.5l-15.78-26.7H364.25z"/>
</g>
</svg>
