<svg id="Layer_1" data-name="Layer 1" xmlns="http://www.w3.org/2000/svg" viewBox="0 0 295.32 152.72">
  <defs>
    <style>
      .cls-1 {
        fill: currentColor;
      }
    </style>
  </defs>
  <path class="cls-1" d="M31.74,12.79l-8.4,52.84H9.57L18,12.79H0L1.79,1.25H51.6L49.81,12.79Z"/>
  <path class="cls-1" d="M62.51,65.63,72.7,1.25h41.4l-1.79,11.54H84.68L82.36,27.45h23.42L104,38.54H80.57L78.06,54.1h29l-1.79,11.53Z"/>
  <path class="cls-1" d="M184.83,17.08a34.45,34.45,0,0,0-17.08-4.47c-14.48,0-24.85,11.09-24.85,23.87,0,9.93,6.52,17.8,17.79,17.8a45.69,45.69,0,0,0,19.4-4.47L178,62.59a48.83,48.83,0,0,1-20.3,4.29C140.3,66.88,129,54.46,129,38.09,129,17.17,146.83,0,168.74,0c9,0,15.11,2.68,18.06,4.47Z"/>
  <path class="cls-1" d="M240.81,65.63l4.29-26.91H218.55l-4.3,26.91H200.48l10.2-64.38h13.77l-4.12,26h26.56l4.11-26h13.77L254.58,65.63Z"/>
  <path class="cls-1" d="M65,106.94l-1.35-2.51c-.26,2.06-.62,4-.89,6l-6.53,41.22H49.6L60,86.19h.09l22.62,37.56,34.61-37.56h.09L107,151.65h-6.61l6.52-41.22c.27-2,.63-3.94,1.08-6-1.17,1.43-2.86,3.31-4.3,5L81.16,133.67Z"/>
  <path class="cls-1" d="M138.3,151.65l10.2-64.38h6.79L145.1,151.65Z"/>
  <path class="cls-1" d="M176.4,151.65l10.19-64.38h17.79c17.26,0,29.33,10.55,29.33,27.45,0,22.35-18,36.93-39.16,36.93ZM192.49,93l-8.4,52.93h11.35c16.9,0,31.21-12.16,31.21-30.49,0-13.68-9.39-22.44-23.25-22.44Z"/>
  <path class="cls-1" d="M249.81,148.87l1.07-6.79a37.53,37.53,0,0,0,17.17,4.47c9.12,0,16.63-4.29,16.63-12.16,0-5.28-3.4-8.67-12.78-12.16-10.55-4-15.29-9-15.29-16.63,0-12.43,10.9-19.41,23.6-19.41a36.07,36.07,0,0,1,15.11,3.31l-1.07,6.62a32.65,32.65,0,0,0-14.75-3.76c-8.94,0-16,4.56-16,12,0,4.83,3,8.68,12.61,12.34,10.64,4,15.47,8.77,15.47,16.46,0,12.25-10.19,19.58-24.14,19.58A41.46,41.46,0,0,1,249.81,148.87Z"/>
</svg>