<?xml version="1.0" encoding="utf-8"?>
<!-- Generator: Adobe Illustrator 25.4.1, SVG Export Plug-In . SVG Version: 6.00 Build 0)  -->
<svg version="1.1" id="Layer_1" xmlns="http://www.w3.org/2000/svg" xmlns:xlink="http://www.w3.org/1999/xlink" x="0px" y="0px"
	 viewBox="0 0 526.95 216" style="enable-background:new 0 0 526.95 216;" xml:space="preserve">
<g>
	<path d="M95.61,32.8L100.8,0H8.4L0,52.5h29.7L3.9,216h62.7l5.8-36.64c-8-14.7-12.14-32.85-12.14-52.65
		C60.26,90.5,73.53,56.46,95.61,32.8z"/>
	<path d="M232.07,39.24C220.18,15.46,198.65,0,168.55,0c-28.89,0-54.12,12.63-72.94,32.8L72.4,179.37
		c12.14,22.3,33.17,36.64,62.16,36.64c31.85,0,59.25-15.35,78.53-39.24c-7.11-14.21-10.78-31.4-10.78-50.04
		C202.31,93.66,213.36,62.43,232.07,39.24z M143.2,160.99c-14.98,0-22.18-15.26-22.18-37.15c0-35.71,13.82-68.83,38.88-68.83
		c14.98,0,22.18,15.26,22.18,37.15C182.08,127.87,168.26,160.99,143.2,160.99z"/>
	<path d="M374.12,39.24C362.23,15.46,340.7,0,310.6,0c-31.85,0-59.25,15.35-78.53,39.24c7.11,14.21,10.78,31.4,10.78,50.04
		c0,33.06-11.05,64.29-29.76,87.48c11.9,23.78,33.42,39.24,63.52,39.24c31.85,0,59.25-15.35,78.53-39.24
		c-7.11-14.21-10.78-31.4-10.78-50.04C344.36,93.66,355.41,62.43,374.12,39.24z M285.25,160.99c-14.98,0-22.18-15.26-22.18-37.15
		c0-35.71,13.82-68.83,38.88-68.83c14.98,0,22.18,15.26,22.18,37.15C324.13,127.87,310.31,160.99,285.25,160.99z"/>
	<path d="M452.65,0c-31.85,0-59.25,15.35-78.53,39.24c7.11,14.21,10.78,31.4,10.78,50.04c0,33.06-11.05,64.29-29.76,87.48
		c11.9,23.78,33.42,39.24,63.52,39.24c62.78,0,108.29-59.62,108.29-126.72C526.95,39.46,500.75,0,452.65,0z M427.31,160.99
		c-14.98,0-22.18-15.26-22.18-37.15c0-35.71,13.82-68.83,38.88-68.83c14.98,0,22.18,15.26,22.18,37.15
		C466.19,127.87,452.36,160.99,427.31,160.99z"/>
</g>
</svg>
